<svg width="29" height="27" viewBox="0 0 29 27" fill="none" xmlns="http://www.w3.org/2000/svg">
<path d="M22.0844 11.6033C21.4828 11.6033 21.0071 11.1392 21.0071 10.5823C21.0071 10.0918 20.4895 9.07087 19.6221 8.18256C18.7687 7.32076 17.8314 6.81694 17.0479 6.81694C16.4464 6.81694 15.9707 6.3529 15.9707 5.79604C15.9707 5.23919 16.4604 4.77515 17.0479 4.77515C18.447 4.77515 19.9159 5.4911 21.203 6.77717C22.4061 7.98368 23.1756 9.48188 23.1756 10.5691C23.1756 11.1392 22.686 11.6033 22.0844 11.6033Z" fill="#292D32"/>
<path d="M27.1345 11.6011C26.533 11.6011 26.0573 11.1371 26.0573 10.5802C26.0573 5.87347 22.0142 2.05505 17.0617 2.05505C16.4601 2.05505 15.9844 1.59101 15.9844 1.03416C15.9844 0.477303 16.4601 0 17.0477 0C23.2033 0 28.2118 4.74651 28.2118 10.5802C28.2118 11.1371 27.7221 11.6011 27.1345 11.6011Z" fill="#292D32"/>
<path d="M12.8928 17.1696L10.3047 19.6224C9.75907 20.1395 8.89168 20.1395 8.33208 19.6357C8.17819 19.4899 8.0243 19.3573 7.8704 19.2114C6.42942 17.8326 5.12835 16.3874 3.96717 14.8759C2.81998 13.3645 1.89663 11.853 1.22511 10.3548C0.567574 8.84336 0.231812 7.39819 0.231812 6.01932C0.231812 5.11775 0.399693 4.25595 0.735455 3.46045C1.07122 2.65168 1.60284 1.90921 2.34432 1.24629C3.23968 0.411011 4.21899 0 5.25426 0C5.64598 0 6.0377 0.0795505 6.38745 0.238651C6.7512 0.397752 7.07297 0.636404 7.32479 0.981122L10.5705 5.31662C10.8223 5.64808 11.0042 5.95303 11.1301 6.24471C11.256 6.52314 11.326 6.80156 11.326 7.05347C11.326 7.37168 11.228 7.68988 11.0322 7.99482C10.8503 8.29976 10.5845 8.61797 10.2487 8.93617L9.18547 9.98358C9.03158 10.1294 8.96163 10.3018 8.96163 10.5139C8.96163 10.62 8.97562 10.7128 9.0036 10.8189C9.04557 10.9249 9.08754 11.0045 9.11552 11.084C9.36735 11.5216 9.80104 12.0917 10.4166 12.7811C11.0462 13.4705 11.7177 14.1732 12.4452 14.8759C12.5851 15.0085 12.739 15.1411 12.8789 15.2737C13.4385 15.7908 13.4525 16.6393 12.8928 17.1696Z" fill="#292D32"/>
<path d="M28.1696 21.6497C28.1696 22.0209 28.0996 22.4054 27.9597 22.7767C27.9177 22.8827 27.8758 22.9888 27.8198 23.0949C27.582 23.5722 27.2742 24.023 26.8685 24.4472C26.183 25.1632 25.4275 25.6803 24.5741 26.0117C24.5601 26.0117 24.5461 26.025 24.5321 26.025C23.7067 26.3432 22.8114 26.5155 21.846 26.5155C20.4191 26.5155 18.8941 26.1973 17.2853 25.5477C15.6764 24.898 14.0675 24.023 12.4727 22.9225C11.9271 22.538 11.3815 22.1535 10.8638 21.7425L15.4386 17.407C15.8303 17.6854 16.1801 17.8976 16.4738 18.0434C16.5438 18.0699 16.6277 18.1097 16.7257 18.1495C16.8376 18.1893 16.9495 18.2025 17.0754 18.2025C17.3133 18.2025 17.4951 18.123 17.649 17.9771L18.7123 16.9827C19.062 16.6513 19.3978 16.3994 19.7195 16.2403C20.0413 16.0547 20.3631 15.9618 20.7128 15.9618C20.9787 15.9618 21.2585 16.0149 21.5662 16.1342C21.874 16.2535 22.1958 16.4259 22.5455 16.6513L27.1763 19.767C27.54 20.0057 27.7918 20.2841 27.9457 20.6155C28.0856 20.947 28.1696 21.2785 28.1696 21.6497Z" fill="#292D32"/>
</svg>
