<svg width="24" height="25" viewBox="0 0 24 25" fill="none" xmlns="http://www.w3.org/2000/svg">
<path d="M22.7373 8.17073C21.4295 2.53659 16.4103 0 12.0014 0C12.0014 0 12.0014 0 11.9889 0C7.5924 0 2.56073 2.52439 1.25299 8.15854C-0.204204 14.4512 3.73146 19.7805 7.29349 23.1341C8.61368 24.378 10.3075 25 12.0014 25C13.6952 25 15.389 24.378 16.6968 23.1341C20.2588 19.7805 24.1945 14.4634 22.7373 8.17073ZM12.0014 14.2805C9.83427 14.2805 8.07813 12.561 8.07813 10.439C8.07813 8.31707 9.83427 6.59756 12.0014 6.59756C14.1685 6.59756 15.9246 8.31707 15.9246 10.439C15.9246 12.561 14.1685 14.2805 12.0014 14.2805Z" fill="#292D32"/>
</svg>
