<svg width="25" height="26" viewBox="0 0 25 26" fill="none" xmlns="http://www.w3.org/2000/svg">
<path d="M12.5 7.20923C10.1375 7.20923 9.6875 8.19971 9.6875 10.0302V10.8076H15.3125V10.0302C15.3125 8.19971 14.8625 7.20923 12.5 7.20923Z" fill="black"/>
<path d="M12.4983 16.4225C13.2578 16.4225 13.8733 15.8052 13.8733 15.0434C13.8733 14.2817 13.2578 13.6642 12.4983 13.6642C11.7389 13.6642 11.1233 14.2817 11.1233 15.0434C11.1233 15.8052 11.7389 16.4225 12.4983 16.4225Z" fill="black"/>
<path d="M12.5 0C5.6 0 0 5.61693 0 12.5378C0 19.4586 5.6 25.0756 12.5 25.0756C19.4 25.0756 25 19.4586 25 12.5378C25 5.61693 19.4 0 12.5 0ZM19.225 15.6722C19.225 18.4305 18.375 19.2831 15.625 19.2831H9.375C6.625 19.2831 5.775 18.4305 5.775 15.6722V14.4185C5.775 12.2745 6.2875 11.284 7.8125 10.9455V10.0302C7.8125 8.86421 7.8125 5.32856 12.5 5.32856C17.1875 5.32856 17.1875 8.86421 17.1875 10.0302V10.9455C18.7125 11.284 19.225 12.2745 19.225 14.4185V15.6722Z" fill="black"/>
</svg>
