<svg width="182" height="16" viewBox="0 0 182 16" fill="none" xmlns="http://www.w3.org/2000/svg">
<path d="M177.824 8.93183V8.86791C177.831 8.18964 177.902 7.64987 178.037 7.24859C178.172 6.84731 178.364 6.52238 178.612 6.2738C178.861 6.02522 179.159 5.79618 179.507 5.58666C179.717 5.45882 179.905 5.30789 180.072 5.13389C180.239 4.95633 180.37 4.75214 180.466 4.52132C180.565 4.29049 180.615 4.03481 180.615 3.75427C180.615 3.40626 180.534 3.10441 180.37 2.84873C180.207 2.59305 179.988 2.39596 179.715 2.25747C179.442 2.11897 179.138 2.04973 178.804 2.04973C178.513 2.04973 178.232 2.1101 177.962 2.23083C177.693 2.35157 177.467 2.54156 177.286 2.80079C177.105 3.06003 177 3.39916 176.972 3.81819H175.629C175.658 3.2145 175.814 2.69781 176.098 2.26812C176.386 1.83843 176.764 1.50995 177.233 1.28268C177.705 1.05541 178.229 0.941772 178.804 0.941772C179.429 0.941772 179.972 1.06606 180.434 1.31464C180.899 1.56322 181.258 1.90413 181.51 2.33737C181.766 2.77061 181.894 3.26422 181.894 3.81819C181.894 4.20882 181.833 4.56216 181.712 4.87821C181.595 5.19426 181.425 5.47657 181.201 5.72515C180.981 5.97373 180.715 6.1939 180.402 6.38566C180.09 6.58098 179.839 6.78694 179.651 7.00356C179.463 7.21663 179.326 7.47054 179.241 7.76528C179.156 8.06003 179.11 8.42757 179.102 8.86791V8.93183H177.824ZM178.506 12.0852C178.243 12.0852 178.018 11.9911 177.829 11.8029C177.641 11.6147 177.547 11.3892 177.547 11.1264C177.547 10.8636 177.641 10.6382 177.829 10.4499C178.018 10.2617 178.243 10.1676 178.506 10.1676C178.769 10.1676 178.994 10.2617 179.182 10.4499C179.371 10.6382 179.465 10.8636 179.465 11.1264C179.465 11.3004 179.42 11.4602 179.331 11.6058C179.246 11.7514 179.131 11.8686 178.985 11.9574C178.843 12.0426 178.683 12.0852 178.506 12.0852Z" fill="black"/>
<path d="M174.292 3.8182V4.88354H170.052V3.8182H174.292ZM171.288 1.85797H172.545V9.65627C172.545 10.0114 172.597 10.2777 172.7 10.4553C172.806 10.6293 172.941 10.7465 173.104 10.8068C173.271 10.8637 173.447 10.8921 173.632 10.8921C173.77 10.8921 173.884 10.885 173.973 10.8708C174.061 10.853 174.133 10.8388 174.186 10.8281L174.441 11.9574C174.356 11.9894 174.237 12.0213 174.085 12.0533C173.932 12.0888 173.738 12.1066 173.504 12.1066C173.149 12.1066 172.801 12.0302 172.46 11.8775C172.123 11.7248 171.842 11.4922 171.618 11.1797C171.398 10.8672 171.288 10.473 171.288 9.99718V1.85797Z" fill="black"/>
<path d="M163.217 7.07815V12H161.96V3.8182H163.174V5.09661H163.281C163.472 4.68113 163.764 4.34732 164.154 4.09519C164.545 3.83951 165.049 3.71167 165.667 3.71167C166.221 3.71167 166.706 3.82531 167.121 4.05258C167.537 4.2763 167.86 4.61721 168.091 5.07531C168.322 5.52985 168.437 6.10514 168.437 6.80116V12H167.18V6.88639C167.18 6.24363 167.013 5.74292 166.679 5.38425C166.345 5.02204 165.887 4.84093 165.305 4.84093C164.904 4.84093 164.545 4.92793 164.229 5.10194C163.916 5.27595 163.67 5.52985 163.488 5.86366C163.307 6.19746 163.217 6.60229 163.217 7.07815Z" fill="black"/>
<path d="M158.4 8.65485V3.81821H159.657V12H158.4V10.6151H158.315C158.123 11.0306 157.825 11.3839 157.42 11.6751C157.015 11.9627 156.504 12.1066 155.886 12.1066C155.375 12.1066 154.92 11.9947 154.522 11.771C154.125 11.5437 153.812 11.2028 153.585 10.7482C153.358 10.2902 153.244 9.71309 153.244 9.01707V3.81821H154.501V8.93184C154.501 9.52843 154.668 10.0043 155.002 10.3594C155.339 10.7145 155.769 10.8921 156.291 10.8921C156.603 10.8921 156.921 10.8122 157.244 10.6524C157.571 10.4926 157.844 10.2475 158.065 9.91728C158.288 9.58703 158.4 9.16622 158.4 8.65485Z" fill="black"/>
<path d="M147.618 12.1705C146.879 12.1705 146.231 11.9947 145.673 11.6431C145.119 11.2916 144.686 10.7997 144.374 10.1676C144.065 9.53553 143.91 8.7969 143.91 7.95173C143.91 7.09945 144.065 6.35549 144.374 5.71984C144.686 5.08418 145.119 4.59058 145.673 4.23901C146.231 3.88745 146.879 3.71167 147.618 3.71167C148.356 3.71167 149.002 3.88745 149.556 4.23901C150.114 4.59058 150.547 5.08418 150.856 5.71984C151.169 6.35549 151.325 7.09945 151.325 7.95173C151.325 8.7969 151.169 9.53553 150.856 10.1676C150.547 10.7997 150.114 11.2916 149.556 11.6431C149.002 11.9947 148.356 12.1705 147.618 12.1705ZM147.618 11.0412C148.179 11.0412 148.64 10.8974 149.002 10.6098C149.365 10.3221 149.633 9.94391 149.807 9.47516C149.981 9.00641 150.068 8.4986 150.068 7.95173C150.068 7.40485 149.981 6.89526 149.807 6.42296C149.633 5.95066 149.365 5.56891 149.002 5.27772C148.64 4.98653 148.179 4.84093 147.618 4.84093C147.056 4.84093 146.595 4.98653 146.233 5.27772C145.87 5.56891 145.602 5.95066 145.428 6.42296C145.254 6.89526 145.167 7.40485 145.167 7.95173C145.167 8.4986 145.254 9.00641 145.428 9.47516C145.602 9.94391 145.87 10.3221 146.233 10.6098C146.595 10.8974 147.056 11.0412 147.618 11.0412Z" fill="black"/>
<path d="M139.239 12.1705C138.472 12.1705 137.811 11.9894 137.257 11.6272C136.703 11.2649 136.277 10.766 135.979 10.1303C135.68 9.49469 135.531 8.76849 135.531 7.95173C135.531 7.12076 135.684 6.38745 135.989 5.7518C136.298 5.11259 136.728 4.61366 137.278 4.25499C137.832 3.89278 138.479 3.71167 139.217 3.71167C139.793 3.71167 140.311 3.8182 140.773 4.03127C141.234 4.24434 141.613 4.54264 141.907 4.92616C142.202 5.30968 142.385 5.75712 142.456 6.26849H141.199C141.103 5.89562 140.89 5.56536 140.56 5.27772C140.233 4.98653 139.793 4.84093 139.239 4.84093C138.749 4.84093 138.319 4.96877 137.95 5.22445C137.584 5.47658 137.298 5.83347 137.092 6.29512C136.89 6.75322 136.788 7.29122 136.788 7.90911C136.788 8.54122 136.888 9.09164 137.087 9.56039C137.289 10.0291 137.573 10.3931 137.939 10.6524C138.308 10.9116 138.741 11.0412 139.239 11.0412C139.565 11.0412 139.862 10.9844 140.128 10.8708C140.395 10.7571 140.62 10.5938 140.805 10.3807C140.989 10.1676 141.121 9.91195 141.199 9.61366H142.456C142.385 10.0966 142.209 10.5316 141.929 10.9187C141.652 11.3022 141.284 11.6076 140.826 11.8349C140.371 12.0586 139.842 12.1705 139.239 12.1705Z" fill="black"/>
<path d="M130.86 12.1705C130.093 12.1705 129.432 11.9894 128.878 11.6272C128.324 11.2649 127.898 10.766 127.6 10.1303C127.301 9.49469 127.152 8.76849 127.152 7.95173C127.152 7.12076 127.305 6.38745 127.61 5.7518C127.919 5.11259 128.349 4.61366 128.9 4.25499C129.453 3.89278 130.1 3.71167 130.838 3.71167C131.414 3.71167 131.932 3.8182 132.394 4.03127C132.855 4.24434 133.234 4.54264 133.528 4.92616C133.823 5.30968 134.006 5.75712 134.077 6.26849H132.82C132.724 5.89562 132.511 5.56536 132.181 5.27772C131.854 4.98653 131.414 4.84093 130.86 4.84093C130.37 4.84093 129.94 4.96877 129.571 5.22445C129.205 5.47658 128.919 5.83347 128.713 6.29512C128.511 6.75322 128.409 7.29122 128.409 7.90911C128.409 8.54122 128.509 9.09164 128.708 9.56039C128.91 10.0291 129.194 10.3931 129.56 10.6524C129.929 10.9116 130.363 11.0412 130.86 11.0412C131.186 11.0412 131.483 10.9844 131.749 10.8708C132.016 10.7571 132.241 10.5938 132.426 10.3807C132.61 10.1676 132.742 9.91195 132.82 9.61366H134.077C134.006 10.0966 133.83 10.5316 133.55 10.9187C133.273 11.3022 132.905 11.6076 132.447 11.8349C131.993 12.0586 131.463 12.1705 130.86 12.1705Z" fill="black"/>
<path d="M121.491 12.1918C120.973 12.1918 120.502 12.0941 120.08 11.8988C119.657 11.7 119.322 11.4141 119.073 11.0412C118.824 10.6648 118.7 10.2102 118.7 9.67758C118.7 9.20883 118.793 8.82886 118.977 8.53766C119.162 8.24292 119.409 8.0121 119.718 7.84519C120.027 7.67829 120.367 7.554 120.74 7.47232C121.117 7.3871 121.495 7.31962 121.875 7.26991C122.372 7.20599 122.775 7.15805 123.084 7.12609C123.397 7.09058 123.624 7.03198 123.766 6.95031C123.911 6.86863 123.984 6.72658 123.984 6.52417V6.48156C123.984 5.95599 123.84 5.54761 123.553 5.25641C123.269 4.96522 122.837 4.81962 122.258 4.81962C121.658 4.81962 121.188 4.95102 120.847 5.2138C120.506 5.47658 120.266 5.75712 120.128 6.05542L118.935 5.62928C119.148 5.13212 119.432 4.74505 119.787 4.46806C120.146 4.18752 120.536 3.99221 120.959 3.88212C121.385 3.76849 121.804 3.71167 122.216 3.71167C122.479 3.71167 122.78 3.74363 123.121 3.80755C123.466 3.86792 123.798 3.99398 124.117 4.18575C124.441 4.37751 124.709 4.66693 124.922 5.054C125.135 5.44107 125.241 5.95954 125.241 6.6094V12H123.984V10.8921H123.92C123.835 11.0696 123.693 11.2596 123.494 11.462C123.295 11.6644 123.031 11.8367 122.701 11.9787C122.37 12.1208 121.967 12.1918 121.491 12.1918ZM121.683 11.0625C122.18 11.0625 122.599 10.9649 122.94 10.7696C123.285 10.5742 123.544 10.3221 123.718 10.0132C123.896 9.70421 123.984 9.37928 123.984 9.03837V7.88781C123.931 7.95173 123.814 8.01032 123.633 8.06359C123.455 8.1133 123.249 8.15769 123.015 8.19675C122.784 8.23227 122.559 8.26423 122.338 8.29264C122.122 8.31749 121.946 8.3388 121.811 8.35656C121.484 8.39917 121.179 8.46842 120.895 8.5643C120.614 8.65663 120.387 8.7969 120.213 8.98511C120.043 9.16977 119.957 9.4219 119.957 9.7415C119.957 10.1783 120.119 10.5085 120.442 10.7323C120.769 10.9524 121.182 11.0625 121.683 11.0625Z" fill="black"/>
<path d="M107.348 7.07815V12H106.091V3.8182H107.305V5.09661H107.412C107.603 4.68113 107.895 4.34732 108.285 4.09519C108.676 3.83951 109.18 3.71167 109.798 3.71167C110.352 3.71167 110.837 3.82531 111.252 4.05258C111.668 4.2763 111.991 4.61721 112.222 5.07531C112.452 5.52985 112.568 6.10514 112.568 6.80116V12H111.311V6.88639C111.311 6.24363 111.144 5.74292 110.81 5.38425C110.476 5.02204 110.018 4.84093 109.436 4.84093C109.034 4.84093 108.676 4.92793 108.36 5.10194C108.047 5.27595 107.8 5.52985 107.619 5.86366C107.438 6.19746 107.348 6.60229 107.348 7.07815Z" fill="black"/>
<path d="M100.046 12.1918C99.5276 12.1918 99.0571 12.0941 98.6345 11.8988C98.2119 11.7 97.8763 11.4141 97.6278 11.0412C97.3792 10.6648 97.2549 10.2102 97.2549 9.67758C97.2549 9.20883 97.3472 8.82886 97.5319 8.53766C97.7165 8.24292 97.9633 8.0121 98.2723 7.84519C98.5812 7.67829 98.9221 7.554 99.295 7.47232C99.6714 7.3871 100.05 7.31962 100.43 7.26991C100.927 7.20599 101.33 7.15805 101.639 7.12609C101.951 7.09058 102.179 7.03198 102.321 6.95031C102.466 6.86863 102.539 6.72658 102.539 6.52417V6.48156C102.539 5.95599 102.395 5.54761 102.108 5.25641C101.823 4.96522 101.392 4.81962 100.813 4.81962C100.213 4.81962 99.7425 4.95102 99.4015 5.2138C99.0606 5.47658 98.8209 5.75712 98.6824 6.05542L97.4893 5.62928C97.7023 5.13212 97.9864 4.74505 98.3415 4.46806C98.7002 4.18752 99.0908 3.99221 99.5134 3.88212C99.9395 3.76849 100.359 3.71167 100.771 3.71167C101.033 3.71167 101.335 3.74363 101.676 3.80755C102.021 3.86792 102.353 3.99398 102.672 4.18575C102.995 4.37751 103.263 4.66693 103.476 5.054C103.69 5.44107 103.796 5.95954 103.796 6.6094V12H102.539V10.8921H102.475C102.39 11.0696 102.248 11.2596 102.049 11.462C101.85 11.6644 101.585 11.8367 101.255 11.9787C100.925 12.1208 100.522 12.1918 100.046 12.1918ZM100.238 11.0625C100.735 11.0625 101.154 10.9649 101.495 10.7696C101.839 10.5742 102.099 10.3221 102.273 10.0132C102.45 9.70421 102.539 9.37928 102.539 9.03837V7.88781C102.486 7.95173 102.369 8.01032 102.187 8.06359C102.01 8.1133 101.804 8.15769 101.57 8.19675C101.339 8.23227 101.113 8.26423 100.893 8.29264C100.676 8.31749 100.501 8.3388 100.366 8.35656C100.039 8.39917 99.7336 8.46842 99.4495 8.5643C99.1689 8.65663 98.9417 8.7969 98.7677 8.98511C98.5972 9.16977 98.512 9.4219 98.512 9.7415C98.512 10.1783 98.6736 10.5085 98.9967 10.7323C99.3234 10.9524 99.7371 11.0625 100.238 11.0625Z" fill="black"/>
<path d="M88.1196 12.1705C87.3312 12.1705 86.6512 11.9965 86.0795 11.6485C85.5113 11.2969 85.0727 10.8068 84.7638 10.1783C84.4584 9.54619 84.3057 8.8111 84.3057 7.97303C84.3057 7.13496 84.4584 6.39633 84.7638 5.75712C85.0727 5.11437 85.5024 4.61366 86.0528 4.25499C86.6068 3.89278 87.2531 3.71167 87.9917 3.71167C88.4179 3.71167 88.8387 3.78269 89.2542 3.92474C89.6697 4.06678 90.0479 4.29761 90.3888 4.61721C90.7297 4.93326 91.0013 5.35229 91.2038 5.87431C91.4062 6.39633 91.5074 7.03908 91.5074 7.80258V8.33525H85.2006V7.2486H90.229C90.229 6.78695 90.1366 6.37502 89.952 6.01281C89.7709 5.65059 89.5116 5.36472 89.1743 5.15521C88.8405 4.94569 88.4463 4.84093 87.9917 4.84093C87.491 4.84093 87.0578 4.96522 86.692 5.2138C86.3298 5.45883 86.051 5.77843 85.8557 6.17261C85.6604 6.56678 85.5628 6.98937 85.5628 7.44036V8.16479C85.5628 8.78269 85.6693 9.30649 85.8824 9.73617C86.099 10.1623 86.3991 10.4872 86.7826 10.711C87.1661 10.9311 87.6118 11.0412 88.1196 11.0412C88.4498 11.0412 88.7481 10.995 89.0145 10.9027C89.2844 10.8068 89.517 10.6648 89.7123 10.4766C89.9076 10.2848 90.0585 10.0469 90.165 9.76281L91.3795 10.1037C91.2517 10.5156 91.0368 10.8779 90.735 11.1904C90.4332 11.4993 90.0603 11.7408 89.6164 11.9148C89.1725 12.0852 88.6736 12.1705 88.1196 12.1705Z" fill="black"/>
<path d="M83.323 3.81821L80.2974 12H79.019L75.9934 3.81821H77.357L79.6156 10.3381H79.7008L81.9593 3.81821H83.323Z" fill="black"/>
<path d="M70.881 12.1918C70.3626 12.1918 69.892 12.0941 69.4695 11.8988C69.0469 11.7 68.7113 11.4141 68.4627 11.0412C68.2141 10.6648 68.0898 10.2102 68.0898 9.67758C68.0898 9.20883 68.1822 8.82886 68.3668 8.53766C68.5515 8.24292 68.7983 8.0121 69.1072 7.84519C69.4162 7.67829 69.7571 7.554 70.13 7.47232C70.5064 7.3871 70.8846 7.31962 71.2646 7.26991C71.7617 7.20599 72.1648 7.15805 72.4737 7.12609C72.7862 7.09058 73.0135 7.03198 73.1555 6.95031C73.3011 6.86863 73.3739 6.72658 73.3739 6.52417V6.48156C73.3739 5.95599 73.2301 5.54761 72.9425 5.25641C72.6584 4.96522 72.2269 4.81962 71.6481 4.81962C71.0479 4.81962 70.5774 4.95102 70.2365 5.2138C69.8956 5.47658 69.6559 5.75712 69.5174 6.05542L68.3242 5.62928C68.5373 5.13212 68.8214 4.74505 69.1765 4.46806C69.5352 4.18752 69.9258 3.99221 70.3484 3.88212C70.7745 3.76849 71.1935 3.71167 71.6055 3.71167C71.8683 3.71167 72.1701 3.74363 72.511 3.80755C72.8555 3.86792 73.1875 3.99398 73.5071 4.18575C73.8303 4.37751 74.0984 4.66693 74.3114 5.054C74.5245 5.44107 74.631 5.95954 74.631 6.6094V12H73.3739V10.8921H73.31C73.2248 11.0696 73.0827 11.2596 72.8839 11.462C72.685 11.6644 72.4205 11.8367 72.0902 11.9787C71.7599 12.1208 71.3569 12.1918 70.881 12.1918ZM71.0728 11.0625C71.57 11.0625 71.989 10.9649 72.3299 10.7696C72.6744 10.5742 72.9336 10.3221 73.1076 10.0132C73.2852 9.70421 73.3739 9.37928 73.3739 9.03837V7.88781C73.3207 7.95173 73.2035 8.01032 73.0224 8.06359C72.8448 8.1133 72.6388 8.15769 72.4045 8.19675C72.1736 8.23227 71.9482 8.26423 71.728 8.29264C71.5114 8.31749 71.3356 8.3388 71.2006 8.35656C70.8739 8.39917 70.5685 8.46842 70.2844 8.5643C70.0039 8.65663 69.7766 8.7969 69.6026 8.98511C69.4322 9.16977 69.3469 9.4219 69.3469 9.7415C69.3469 10.1783 69.5085 10.5085 69.8317 10.7323C70.1584 10.9524 70.5721 11.0625 71.0728 11.0625Z" fill="black"/>
<path d="M60.8682 7.07813V12H59.6111V1.09091H60.8682V5.09659H60.9747C61.1665 4.67401 61.4541 4.33843 61.8376 4.08985C62.2247 3.83772 62.7396 3.71165 63.3824 3.71165C63.9399 3.71165 64.4282 3.82351 64.8472 4.04723C65.2663 4.2674 65.5912 4.60654 65.822 5.06463C66.0564 5.51918 66.1736 6.09801 66.1736 6.80114V12H64.9165V6.88637C64.9165 6.23651 64.7478 5.73402 64.4104 5.37891C64.0766 5.02024 63.6132 4.84091 63.0202 4.84091C62.6082 4.84091 62.2389 4.92791 61.9122 5.10192C61.5891 5.27593 61.3334 5.52983 61.1452 5.86364C60.9605 6.19745 60.8682 6.60228 60.8682 7.07813Z" fill="black"/>
<path d="M47.8524 15.0682C47.6394 15.0682 47.4494 15.0505 47.2825 15.0149C47.1156 14.983 47.0002 14.951 46.9362 14.9191L47.2558 13.8111C47.5612 13.8892 47.8311 13.9176 48.0655 13.8963C48.2999 13.875 48.5076 13.7703 48.6887 13.5821C48.8734 13.3974 49.0421 13.0973 49.1948 12.6818L49.4291 12.0426L46.4036 3.81821H47.7672L50.0257 10.3381H50.111L52.3695 3.81821H53.7331L50.2601 13.1932C50.1038 13.6158 49.9103 13.9656 49.6795 14.2426C49.4487 14.5231 49.1806 14.7308 48.8752 14.8658C48.5733 15.0007 48.2324 15.0682 47.8524 15.0682Z" fill="black"/>
<path d="M40.8158 12.1705C40.134 12.1705 39.532 11.9982 39.01 11.6538C38.488 11.3058 38.0796 10.8157 37.7849 10.1836C37.4901 9.54794 37.3428 8.79688 37.3428 7.9304C37.3428 7.07103 37.4901 6.32529 37.7849 5.69318C38.0796 5.06108 38.4898 4.5728 39.0154 4.22834C39.5409 3.88388 40.1482 3.71165 40.8371 3.71165C41.3698 3.71165 41.7906 3.80043 42.0995 3.97799C42.412 4.15199 42.6499 4.35086 42.8133 4.57458C42.9802 4.79475 43.1098 4.97585 43.2021 5.1179H43.3087V1.09091H44.5658V12H43.3513V10.7429H43.2021C43.1098 10.892 42.9784 11.0803 42.808 11.3075C42.6375 11.5313 42.3943 11.7319 42.0782 11.9094C41.7622 12.0835 41.3414 12.1705 40.8158 12.1705ZM40.9862 11.0412C41.4905 11.0412 41.9166 10.9098 42.2646 10.647C42.6127 10.3807 42.8772 10.0131 43.0583 9.54439C43.2394 9.07209 43.33 8.52699 43.33 7.90909C43.33 7.2983 43.2412 6.76385 43.0637 6.30576C42.8861 5.84411 42.6233 5.48544 42.2753 5.22976C41.9273 4.97053 41.4976 4.84091 40.9862 4.84091C40.4536 4.84091 40.0097 4.97763 39.6546 5.25107C39.303 5.52095 39.0384 5.8885 38.8609 6.3537C38.6869 6.81534 38.5999 7.33381 38.5999 7.90909C38.5999 8.49148 38.6887 9.0206 38.8662 9.49645C39.0473 9.96875 39.3137 10.3452 39.6652 10.6257C40.0203 10.9027 40.4607 11.0412 40.9862 11.0412Z" fill="black"/>
<path d="M31.6818 12.1918C31.1634 12.1918 30.6928 12.0941 30.2702 11.8988C29.8477 11.7 29.5121 11.4141 29.2635 11.0412C29.0149 10.6648 28.8906 10.2102 28.8906 9.67758C28.8906 9.20883 28.983 8.82886 29.1676 8.53766C29.3523 8.24292 29.5991 8.0121 29.908 7.84519C30.217 7.67829 30.5579 7.554 30.9308 7.47232C31.3072 7.3871 31.6854 7.31962 32.0653 7.26991C32.5625 7.20599 32.9656 7.15805 33.2745 7.12609C33.587 7.09058 33.8143 7.03198 33.9563 6.95031C34.1019 6.86863 34.1747 6.72658 34.1747 6.52417V6.48156C34.1747 5.95599 34.0309 5.54761 33.7433 5.25641C33.4592 4.96522 33.0277 4.81962 32.4489 4.81962C31.8487 4.81962 31.3782 4.95102 31.0373 5.2138C30.6964 5.47658 30.4567 5.75712 30.3182 6.05542L29.125 5.62928C29.3381 5.13212 29.6222 4.74505 29.9773 4.46806C30.3359 4.18752 30.7266 3.99221 31.1491 3.88212C31.5753 3.76849 31.9943 3.71167 32.4062 3.71167C32.669 3.71167 32.9709 3.74363 33.3118 3.80755C33.6562 3.86792 33.9883 3.99398 34.3079 4.18575C34.631 4.37751 34.8991 4.66693 35.1122 5.054C35.3253 5.44107 35.4318 5.95954 35.4318 6.6094V12H34.1747V10.8921H34.1108C34.0256 11.0696 33.8835 11.2596 33.6847 11.462C33.4858 11.6644 33.2212 11.8367 32.891 11.9787C32.5607 12.1208 32.1577 12.1918 31.6818 12.1918ZM31.8736 11.0625C32.3707 11.0625 32.7898 10.9649 33.1307 10.7696C33.4751 10.5742 33.7344 10.3221 33.9084 10.0132C34.0859 9.70421 34.1747 9.37928 34.1747 9.03837V7.88781C34.1214 7.95173 34.0043 8.01032 33.8232 8.06359C33.6456 8.1133 33.4396 8.15769 33.2053 8.19675C32.9744 8.23227 32.7489 8.26423 32.5288 8.29264C32.3121 8.31749 32.1364 8.3388 32.0014 8.35656C31.6747 8.39917 31.3693 8.46842 31.0852 8.5643C30.8047 8.65663 30.5774 8.7969 30.4034 8.98511C30.233 9.16977 30.1477 9.4219 30.1477 9.7415C30.1477 10.1783 30.3093 10.5085 30.6325 10.7323C30.9592 10.9524 31.3729 11.0625 31.8736 11.0625Z" fill="black"/>
<path d="M23.9741 12.1705C23.1857 12.1705 22.5057 11.9965 21.9339 11.6485C21.3658 11.2969 20.9272 10.8068 20.6183 10.1783C20.3129 9.54619 20.1602 8.8111 20.1602 7.97303C20.1602 7.13496 20.3129 6.39633 20.6183 5.75712C20.9272 5.11437 21.3569 4.61366 21.9073 4.25499C22.4613 3.89278 23.1076 3.71167 23.8462 3.71167C24.2724 3.71167 24.6932 3.78269 25.1087 3.92474C25.5241 4.06678 25.9023 4.29761 26.2433 4.61721C26.5842 4.93326 26.8558 5.35229 27.0582 5.87431C27.2607 6.39633 27.3619 7.03908 27.3619 7.80258V8.33525H21.055V7.2486H26.0835C26.0835 6.78695 25.9911 6.37502 25.8065 6.01281C25.6254 5.65059 25.3661 5.36472 25.0288 5.15521C24.695 4.94569 24.3008 4.84093 23.8462 4.84093C23.3455 4.84093 22.9123 4.96522 22.5465 5.2138C22.1843 5.45883 21.9055 5.77843 21.7102 6.17261C21.5149 6.56678 21.4173 6.98937 21.4173 7.44036V8.16479C21.4173 8.78269 21.5238 9.30649 21.7369 9.73617C21.9535 10.1623 22.2536 10.4872 22.6371 10.711C23.0206 10.9311 23.4663 11.0412 23.9741 11.0412C24.3043 11.0412 24.6026 10.995 24.869 10.9027C25.1388 10.8068 25.3714 10.6648 25.5668 10.4766C25.7621 10.2848 25.913 10.0469 26.0195 9.76281L27.234 10.1037C27.1062 10.5156 26.8913 10.8779 26.5895 11.1904C26.2876 11.4993 25.9148 11.7408 25.4709 11.9148C25.027 12.0852 24.5281 12.1705 23.9741 12.1705Z" fill="black"/>
<path d="M15.2117 12V3.81818H16.4262V5.05397H16.5114C16.6605 4.64915 16.9304 4.32067 17.321 4.06853C17.7117 3.8164 18.152 3.69034 18.6421 3.69034C18.7344 3.69034 18.8498 3.69211 18.9883 3.69566C19.1268 3.69922 19.2316 3.70454 19.3026 3.71165V4.99005C19.26 4.9794 19.1623 4.96342 19.0096 4.94211C18.8605 4.91726 18.7024 4.90483 18.5355 4.90483C18.1378 4.90483 17.7827 4.98828 17.4702 5.15518C17.1612 5.31853 16.9162 5.54581 16.7351 5.837C16.5576 6.12464 16.4688 6.45312 16.4688 6.82244V12H15.2117Z" fill="black"/>
<path d="M12.9092 1.09091V12H11.6521V1.09091H12.9092Z" fill="black"/>
<path d="M2.13323 12H0.748291L4.75397 1.09091H6.11761L10.1233 12H8.73835L5.4784 2.81676H5.39318L2.13323 12ZM2.6446 7.73864H8.22698V8.91051H2.6446V7.73864Z" fill="black"/>
</svg>
