<svg width="50" height="22" viewBox="0 0 50 22" fill="none" xmlns="http://www.w3.org/2000/svg">
<path d="M35.3028 13.206V18H33.3745V9.81817H35.2175V11.2084H35.3134C35.5016 10.7503 35.8017 10.3864 36.2136 10.1165C36.6291 9.84658 37.1423 9.71164 37.7531 9.71164C38.3177 9.71164 38.8095 9.83238 39.2286 10.0739C39.6511 10.3153 39.9778 10.6651 40.2087 11.1232C40.443 11.5813 40.5585 12.1371 40.5549 12.7905V18H38.6266V13.0888C38.6266 12.5419 38.4846 12.114 38.2005 11.805C37.92 11.4961 37.5311 11.3416 37.034 11.3416C36.6966 11.3416 36.3965 11.4162 36.1337 11.5653C35.8745 11.7109 35.6703 11.9222 35.5212 12.1992C35.3756 12.4762 35.3028 12.8118 35.3028 13.206Z" fill="#1E151D"/>
<path d="M29.4634 18V9.81818H31.3916V18H29.4634ZM30.4328 8.65696C30.1274 8.65696 29.8646 8.55576 29.6445 8.35334C29.4243 8.14737 29.3142 7.90057 29.3142 7.61293C29.3142 7.32174 29.4243 7.07493 29.6445 6.87252C29.8646 6.66655 30.1274 6.56357 30.4328 6.56357C30.7418 6.56357 31.0045 6.66655 31.2212 6.87252C31.4413 7.07493 31.5514 7.32174 31.5514 7.61293C31.5514 7.90057 31.4413 8.14737 31.2212 8.35334C31.0045 8.55576 30.7418 8.65696 30.4328 8.65696Z" fill="#1E151D"/>
<path d="M23.6465 21.2386C22.954 21.2386 22.3592 21.1445 21.8621 20.9563C21.3649 20.7717 20.9654 20.5231 20.6636 20.2106C20.3617 19.8981 20.1522 19.5518 20.035 19.1719L21.7715 18.7511C21.8496 18.9109 21.9633 19.0689 22.1124 19.2251C22.2616 19.3849 22.4622 19.5163 22.7143 19.6193C22.97 19.7258 23.2914 19.7791 23.6785 19.7791C24.2253 19.7791 24.6781 19.6459 25.0368 19.3796C25.3954 19.1168 25.5748 18.6836 25.5748 18.0799V16.5298H25.4789C25.3795 16.7287 25.2339 16.9329 25.0421 17.1424C24.8539 17.3519 24.6035 17.5277 24.291 17.6697C23.9821 17.8118 23.5932 17.8828 23.1245 17.8828C22.4959 17.8828 21.926 17.7354 21.4146 17.4407C20.9068 17.1424 20.502 16.6985 20.2001 16.109C19.9018 15.516 19.7527 14.7738 19.7527 13.8824C19.7527 12.984 19.9018 12.2258 20.2001 11.6079C20.502 10.9865 20.9086 10.516 21.4199 10.1964C21.9313 9.87322 22.5013 9.71164 23.1298 9.71164C23.6092 9.71164 24.0034 9.79332 24.3123 9.95667C24.6248 10.1165 24.8734 10.31 25.0581 10.5373C25.2427 10.761 25.383 10.9723 25.4789 11.1712H25.5854V9.81817H27.4871V18.1332C27.4871 18.8327 27.3202 19.4116 26.9864 19.8697C26.6525 20.3278 26.1962 20.6704 25.6174 20.8977C25.0386 21.125 24.3816 21.2386 23.6465 21.2386ZM23.6625 16.37C24.0709 16.37 24.4189 16.2706 24.7065 16.0717C24.9942 15.8729 25.2126 15.587 25.3617 15.2141C25.5109 14.8413 25.5854 14.3938 25.5854 13.8718C25.5854 13.3569 25.5109 12.9059 25.3617 12.5188C25.2161 12.1317 24.9995 11.8317 24.7118 11.6186C24.4278 11.402 24.078 11.2937 23.6625 11.2937C23.2328 11.2937 22.8741 11.4055 22.5865 11.6293C22.2989 11.853 22.0822 12.1601 21.9366 12.5508C21.791 12.9378 21.7182 13.3782 21.7182 13.8718C21.7182 14.3725 21.791 14.8111 21.9366 15.1875C22.0858 15.5604 22.3042 15.8516 22.5918 16.0611C22.883 16.267 23.2399 16.37 23.6625 16.37Z" fill="#1E151D"/>
<path d="M14.5313 18.1598C13.7323 18.1598 13.0398 17.984 12.4539 17.6324C11.8679 17.2809 11.4134 16.7891 11.0902 16.157C10.7706 15.5248 10.6108 14.7862 10.6108 13.941C10.6108 13.0959 10.7706 12.3555 11.0902 11.7198C11.4134 11.0842 11.8679 10.5905 12.4539 10.239C13.0398 9.88742 13.7323 9.71164 14.5313 9.71164C15.3303 9.71164 16.0228 9.88742 16.6087 10.239C17.1946 10.5905 17.6474 11.0842 17.967 11.7198C18.2902 12.3555 18.4517 13.0959 18.4517 13.941C18.4517 14.7862 18.2902 15.5248 17.967 16.157C17.6474 16.7891 17.1946 17.2809 16.6087 17.6324C16.0228 17.984 15.3303 18.1598 14.5313 18.1598ZM14.5419 16.615C14.9752 16.615 15.3374 16.4961 15.6286 16.2582C15.9198 16.0167 16.1364 15.6935 16.2785 15.2887C16.424 14.8839 16.4968 14.4329 16.4968 13.9357C16.4968 13.435 16.424 12.9822 16.2785 12.5774C16.1364 12.169 15.9198 11.8441 15.6286 11.6026C15.3374 11.3611 14.9752 11.2404 14.5419 11.2404C14.0981 11.2404 13.7287 11.3611 13.434 11.6026C13.1428 11.8441 12.9244 12.169 12.7788 12.5774C12.6368 12.9822 12.5657 13.435 12.5657 13.9357C12.5657 14.4329 12.6368 14.8839 12.7788 15.2887C12.9244 15.6935 13.1428 16.0167 13.434 16.2582C13.7287 16.4961 14.0981 16.615 14.5419 16.615Z" fill="#1E151D"/>
<path d="M2.55151 18V7.09091H4.52772V16.3434H9.33241V18H2.55151Z" fill="#1E151D"/>
</svg>
