<svg width="80" height="21" viewBox="0 0 80 21" fill="none" xmlns="http://www.w3.org/2000/svg">
<path d="M73.2231 16V5.09088H75.716V6.90906H75.8297C76.0285 6.27933 76.3695 5.79401 76.8524 5.4531C77.3401 5.10745 77.8964 4.93463 78.5214 4.93463C78.6635 4.93463 78.8221 4.94173 78.9973 4.95594C79.1772 4.96541 79.3264 4.98198 79.4447 5.00565V7.37071C79.3358 7.33283 79.163 7.29969 78.9263 7.27128C78.6943 7.23813 78.4694 7.22156 78.2516 7.22156C77.7828 7.22156 77.3614 7.32336 76.9874 7.52696C76.618 7.72582 76.3268 8.00281 76.1138 8.35793C75.9007 8.71304 75.7942 9.1226 75.7942 9.58662V16H73.2231Z" fill="black"/>
<path d="M66.1972 16.2131C65.1035 16.2131 64.1589 15.9858 63.3634 15.5312C62.5727 15.072 61.9643 14.4233 61.5381 13.5852C61.112 12.7424 60.8989 11.7505 60.8989 10.6094C60.8989 9.4872 61.112 8.50236 61.5381 7.65482C61.969 6.80254 62.5703 6.13967 63.3421 5.66618C64.1139 5.18796 65.0206 4.94885 66.0623 4.94885C66.7346 4.94885 67.3691 5.05775 67.9657 5.27556C68.567 5.48862 69.0973 5.82006 69.5566 6.26987C70.0206 6.71968 70.3852 7.2926 70.6503 7.98862C70.9155 8.67991 71.0481 9.50378 71.0481 10.4602V11.2486H62.1063V9.51561H68.5836C68.5789 9.02319 68.4723 8.58522 68.264 8.20169C68.0557 7.81344 67.7645 7.50804 67.3904 7.2855C67.0211 7.06296 66.5902 6.95169 66.0978 6.95169C65.5722 6.95169 65.1106 7.07953 64.7128 7.33522C64.3151 7.58616 64.005 7.9176 63.7824 8.32953C63.5646 8.73673 63.4534 9.18417 63.4486 9.67186V11.1846C63.4486 11.8191 63.5646 12.3636 63.7967 12.8182C64.0287 13.268 64.353 13.6136 64.7697 13.8551C65.1863 14.0918 65.674 14.2102 66.2327 14.2102C66.6068 14.2102 66.9453 14.1581 67.2484 14.054C67.5514 13.9451 67.8142 13.7864 68.0367 13.5781C68.2593 13.3698 68.4273 13.1117 68.541 12.804L70.9415 13.0739C70.79 13.7083 70.5012 14.2623 70.0751 14.7358C69.6537 15.2045 69.1139 15.5691 68.4557 15.8295C67.7976 16.0852 67.0448 16.2131 66.1972 16.2131Z" fill="black"/>
<path d="M59.3348 5.0909V7.07954H53.0635V5.0909H59.3348ZM54.6118 2.47726H57.1828V12.7187C57.1828 13.0644 57.2349 13.3295 57.339 13.5142C57.4479 13.6941 57.59 13.8172 57.7652 13.8835C57.9404 13.9498 58.1345 13.9829 58.3476 13.9829C58.5086 13.9829 58.6553 13.9711 58.7879 13.9474C58.9252 13.9238 59.0294 13.9025 59.1004 13.8835L59.5336 15.8935C59.3963 15.9408 59.1998 15.9929 58.9442 16.0497C58.6932 16.1065 58.3854 16.1397 58.0209 16.1491C57.3769 16.1681 56.7969 16.071 56.2808 15.8579C55.7647 15.6401 55.3551 15.304 55.0521 14.8494C54.7538 14.3949 54.607 13.8267 54.6118 13.1449V2.47726Z" fill="black"/>
<path d="M51.5328 7.97442L49.1891 8.2301C49.1228 7.99336 49.0068 7.77082 48.8411 7.56249C48.6801 7.35416 48.4623 7.18607 48.1877 7.05823C47.9131 6.93039 47.5769 6.86647 47.1792 6.86647C46.6441 6.86647 46.1943 6.98247 45.8297 7.21448C45.4699 7.44648 45.2923 7.74715 45.2971 8.11647C45.2923 8.4337 45.4083 8.69175 45.6451 8.89061C45.8865 9.08948 46.2843 9.25283 46.8382 9.38067L48.699 9.7784C49.7312 10.0009 50.4983 10.3537 51.0002 10.8366C51.5068 11.3196 51.7625 11.9517 51.7672 12.7329C51.7625 13.4195 51.5613 14.0256 51.1635 14.5511C50.7705 15.072 50.2237 15.4792 49.5229 15.7727C48.8221 16.0663 48.0172 16.2131 47.1081 16.2131C45.7729 16.2131 44.6981 15.9337 43.8837 15.375C43.0693 14.8115 42.584 14.0279 42.4277 13.0241L44.9348 12.7827C45.0485 13.2751 45.2899 13.6468 45.6593 13.8977C46.0286 14.1487 46.5092 14.2741 47.101 14.2741C47.7118 14.2741 48.2019 14.1487 48.5712 13.8977C48.9453 13.6468 49.1323 13.3366 49.1323 12.9673C49.1323 12.6548 49.0115 12.3968 48.7701 12.1932C48.5333 11.9896 48.164 11.8333 47.6621 11.7244L45.8013 11.3338C44.7549 11.116 43.9808 10.749 43.4789 10.2329C42.977 9.71211 42.7284 9.05397 42.7331 8.25851C42.7284 7.58616 42.9107 7.00378 43.28 6.51135C43.6541 6.01419 44.1725 5.63067 44.8354 5.36078C45.503 5.08616 46.2724 4.94885 47.1436 4.94885C48.4221 4.94885 49.4282 5.22111 50.1621 5.76561C50.9007 6.31012 51.3577 7.04639 51.5328 7.97442Z" fill="black"/>
<path d="M37.6959 16V5.09089H40.267V16H37.6959ZM38.9885 3.5426C38.5814 3.5426 38.231 3.40765 37.9374 3.13777C37.6439 2.86315 37.4971 2.53407 37.4971 2.15055C37.4971 1.76229 37.6439 1.43322 37.9374 1.16333C38.231 0.888714 38.5814 0.751404 38.9885 0.751404C39.4005 0.751404 39.7509 0.888714 40.0397 1.16333C40.3332 1.43322 40.48 1.76229 40.48 2.15055C40.48 2.53407 40.3332 2.86315 40.0397 3.13777C39.7509 3.40765 39.4005 3.5426 38.9885 3.5426Z" fill="black"/>
<path d="M29.9403 20.3182C29.017 20.3182 28.2239 20.1927 27.561 19.9417C26.8982 19.6955 26.3655 19.3641 25.963 18.9474C25.5606 18.5308 25.2812 18.0691 25.125 17.5625L27.4403 17.0014C27.5445 17.2145 27.696 17.4252 27.8948 17.6335C28.0937 17.8466 28.3612 18.0218 28.6974 18.1591C29.0383 18.3011 29.4668 18.3721 29.9829 18.3721C30.7121 18.3721 31.3158 18.1946 31.794 17.8395C32.2722 17.4891 32.5113 16.9114 32.5113 16.1065V14.0398H32.3835C32.2509 14.3049 32.0568 14.5772 31.8011 14.8565C31.5501 15.1359 31.2163 15.3703 30.7997 15.5596C30.3877 15.749 29.8693 15.8437 29.2443 15.8437C28.4062 15.8437 27.6463 15.6472 26.9644 15.2542C26.2874 14.8565 25.7476 14.2647 25.3451 13.4787C24.9474 12.688 24.7485 11.6984 24.7485 10.5099C24.7485 9.31202 24.9474 8.30112 25.3451 7.47726C25.7476 6.64866 26.2897 6.0213 26.9715 5.59516C27.6534 5.16429 28.4133 4.94885 29.2514 4.94885C29.8906 4.94885 30.4161 5.05775 30.8281 5.27556C31.2447 5.48862 31.5762 5.74667 31.8224 6.0497C32.0686 6.348 32.2556 6.62972 32.3835 6.89487H32.5255V5.0909H35.061V16.1775C35.061 17.1103 34.8385 17.8821 34.3934 18.4929C33.9483 19.1037 33.3399 19.5606 32.5681 19.8636C31.7964 20.1667 30.9204 20.3182 29.9403 20.3182ZM29.9616 13.8267C30.5061 13.8267 30.9701 13.6941 31.3537 13.429C31.7372 13.1638 32.0284 12.7827 32.2272 12.2855C32.4261 11.7883 32.5255 11.1918 32.5255 10.4957C32.5255 9.80917 32.4261 9.20785 32.2272 8.69175C32.0331 8.17565 31.7443 7.77556 31.3608 7.49147C30.982 7.20264 30.5156 7.05823 29.9616 7.05823C29.3887 7.05823 28.9105 7.20737 28.5269 7.50567C28.1434 7.80397 27.8546 8.21353 27.6605 8.73436C27.4663 9.25046 27.3693 9.83758 27.3693 10.4957C27.3693 11.1633 27.4663 11.7481 27.6605 12.25C27.8593 12.7471 28.1505 13.1354 28.534 13.4148C28.9223 13.6894 29.3982 13.8267 29.9616 13.8267Z" fill="black"/>
<path d="M18.1701 16.2131C17.0764 16.2131 16.1318 15.9858 15.3363 15.5312C14.5456 15.072 13.9372 14.4233 13.511 13.5852C13.0849 12.7424 12.8718 11.7505 12.8718 10.6094C12.8718 9.4872 13.0849 8.50236 13.511 7.65482C13.9419 6.80254 14.5432 6.13967 15.315 5.66618C16.0868 5.18796 16.9935 4.94885 18.0352 4.94885C18.7075 4.94885 19.342 5.05775 19.9386 5.27556C20.5399 5.48862 21.0702 5.82006 21.5295 6.26987C21.9935 6.71968 22.3581 7.2926 22.6232 7.98862C22.8884 8.67991 23.021 9.50378 23.021 10.4602V11.2486H14.0792V9.51561H20.5565C20.5518 9.02319 20.4452 8.58522 20.2369 8.20169C20.0286 7.81344 19.7374 7.50804 19.3633 7.2855C18.994 7.06296 18.5631 6.95169 18.0707 6.95169C17.5451 6.95169 17.0835 7.07953 16.6857 7.33522C16.288 7.58616 15.9779 7.9176 15.7553 8.32953C15.5375 8.73673 15.4263 9.18417 15.4215 9.67186V11.1846C15.4215 11.8191 15.5375 12.3636 15.7696 12.8182C16.0016 13.268 16.3259 13.6136 16.7426 13.8551C17.1592 14.0918 17.6469 14.2102 18.2056 14.2102C18.5797 14.2102 18.9182 14.1581 19.2213 14.054C19.5243 13.9451 19.7871 13.7864 20.0096 13.5781C20.2321 13.3698 20.4002 13.1117 20.5139 12.804L22.9144 13.0739C22.7629 13.7083 22.4741 14.2623 22.048 14.7358C21.6266 15.2045 21.0868 15.5691 20.4286 15.8295C19.7705 16.0852 19.0177 16.2131 18.1701 16.2131Z" fill="black"/>
<path d="M0.602539 16V1.45453H6.05709C7.17451 1.45453 8.11201 1.64866 8.86959 2.03691C9.6319 2.42517 10.2072 2.96968 10.5954 3.67044C10.9884 4.36646 11.1849 5.17849 11.1849 6.10652C11.1849 7.03928 10.9861 7.84894 10.5883 8.53549C10.1953 9.21731 9.61532 9.74525 8.84828 10.1193C8.08123 10.4886 7.139 10.6733 6.02157 10.6733H2.13663V8.48578H5.66646C6.31987 8.48578 6.85491 8.39582 7.27157 8.21589C7.68824 8.03123 7.99601 7.76371 8.19487 7.41334C8.39847 7.05822 8.50027 6.62262 8.50027 6.10652C8.50027 5.59042 8.39847 5.15008 8.19487 4.78549C7.99127 4.41618 7.68114 4.13682 7.26447 3.94743C6.8478 3.7533 6.3104 3.65623 5.65226 3.65623H3.23748V16H0.602539ZM8.11674 9.40907L11.7176 16H8.77726L5.24032 9.40907H8.11674Z" fill="black"/>
</svg>
