<svg width="50" height="50" viewBox="0 0 50 50" fill="none" xmlns="http://www.w3.org/2000/svg">
<path fill-rule="evenodd" clip-rule="evenodd" d="M25.8479 7.43587C25.2979 7.24362 24.7002 7.24362 24.1504 7.43587L11.6598 11.8026C10.6172 12.1671 9.90761 13.1625 9.90761 14.2921C9.90761 14.9125 9.90515 15.5261 9.90271 16.1332C9.87304 23.5015 9.84727 29.9052 14.2873 35.5994C17.1378 39.2554 20.697 41.6021 24.9991 42.6909C29.3012 41.6021 32.8604 39.2554 35.711 35.5994C40.151 29.905 40.1252 23.5015 40.0956 16.1332C40.0931 15.5261 40.0906 14.9125 40.0906 14.2921C40.0906 13.1625 39.381 12.1671 38.3385 11.8026L25.8479 7.43587ZM23.1189 4.48595C24.3366 4.06027 25.6616 4.06027 26.8791 4.48595L39.3698 8.85266C41.6783 9.65972 43.2156 11.8468 43.2156 14.2921C43.2156 14.9417 43.2195 15.5947 43.2235 16.2502C43.2668 23.4411 43.312 30.9329 38.1754 37.5211C34.8789 41.7488 30.6781 44.5125 25.6085 45.7596C25.2083 45.8579 24.7898 45.8579 24.3898 45.7596C19.32 44.5125 15.1192 41.7488 11.8229 37.5211C6.68609 30.9329 6.73132 23.4411 6.77471 16.2502C6.77867 15.5947 6.78261 14.9417 6.78261 14.2921C6.78261 11.8468 8.32 9.65972 10.6285 8.85266L23.1189 4.48595Z" fill="black"/>
<path d="M25 5.72916V44.2708C24.9207 44.2708 24.8413 44.2612 24.7638 44.2423C20.0472 43.0821 16.1446 40.5215 13.056 36.5602C8.26842 30.42 8.30324 23.4733 8.33967 16.2028C8.34286 15.5683 8.34605 14.9312 8.34605 14.2921C8.34605 12.5046 9.46953 10.9134 11.1451 10.3276L23.6357 5.96089C24.0776 5.80641 24.5388 5.72916 25 5.72916Z" fill="black"/>
</svg>
