<svg width="17" height="17" viewBox="0 0 17 17" fill="none" xmlns="http://www.w3.org/2000/svg">
<path fill-rule="evenodd" clip-rule="evenodd" d="M12.3744 1.29289C12.7649 0.902369 13.3981 0.902369 13.7886 1.29289L15.2028 2.70711C15.5933 3.09763 15.5933 3.7308 15.2028 4.12132L13.7886 5.53556L10.9602 2.70718L10.2531 3.41429L13.0814 6.24267L4.81029 14.5138L1.27476 15.2209L1.98186 11.6854L12.3744 1.29289ZM1.0623 16.2832L5.3033 15.435L15.9099 4.82843C16.691 4.04738 16.691 2.78105 15.9099 2L14.4957 0.585786C13.7146 -0.195262 12.4483 -0.195262 11.6673 0.585786L1.06066 11.1924L0.212459 15.4334L0 16.4957L1.0623 16.2832Z" fill="#6D6D6D"/>
</svg>
