<svg width="23" height="25" viewBox="0 0 23 25" fill="none" xmlns="http://www.w3.org/2000/svg">
<path d="M21.7956 8.17073C20.4879 2.53659 15.4687 0 11.0597 0C11.0597 0 11.0597 0 11.0473 0C6.65075 0 1.61908 2.52439 0.311339 8.15854C-1.14585 14.4512 2.78981 19.7805 6.35184 23.1341C7.67203 24.378 9.3659 25 11.0597 25C12.7536 25 14.4474 24.378 15.7551 23.1341C19.3172 19.7805 23.2528 14.4634 21.7956 8.17073ZM11.0597 14.2805C8.89262 14.2805 7.13648 12.561 7.13648 10.439C7.13648 8.31707 8.89262 6.59756 11.0597 6.59756C13.2268 6.59756 14.9829 8.31707 14.9829 10.439C14.9829 12.561 13.2268 14.2805 11.0597 14.2805Z" fill="#292D32"/>
</svg>
